<?xml version="1.0" encoding="utf-8"?>
<!-- Generator: Adobe Illustrator 23.0.1, SVG Export Plug-In . SVG Version: 6.00 Build 0)  -->
<svg version="1.1" id="Layer_1" xmlns="http://www.w3.org/2000/svg" xmlns:xlink="http://www.w3.org/1999/xlink" x="0px" y="0px"
	 viewBox="0 0 1816.22 1132.91" style="enable-background:new 0 0 1816.22 1132.91;" xml:space="preserve">
<style type="text/css">
	.st0{fill:#010101;}
</style>
<g>
	<g>
		<path class="st0" d="M889.38,771.22c-22.2,93.88-64.52,166.03-126.95,216.44c-64.28,49.95-140.37,74.92-228.23,74.92
			c-79.55-1.85-145.92-21.27-199.1-58.27c-54.11-35.61-93.42-76.77-117.93-123.48c-7.4-15.26-14.12-29.83-20.12-43.7
			c-5.55-14.34-10.17-32.37-13.87-54.11c-6.94-40.7-10.41-118.86-10.41-234.48c0-117.47,3.47-196.09,10.41-235.86
			c7.39-39.77,18.73-71.92,33.99-96.43c24.51-46.71,63.82-88.33,117.93-124.87c53.18-37,119.55-55.96,199.1-56.88
			c97.57,0.92,177.13,29.83,238.64,86.71c61.5,57.35,100.35,128.34,116.54,212.97H727.05c-12.49-40.7-35.15-75.38-67.98-104.06
			c-34.23-27.29-75.86-41.39-124.87-42.32c-36.07,0.92-67.06,8.09-92.96,21.51c-26.36,13.87-47.64,31.22-63.82,52.03
			c-19.89,21.74-33.07,49.72-39.54,83.94c-7.4,36.07-11.1,103.83-11.1,203.26s3.7,166.72,11.1,201.87
			c6.47,35.15,19.66,63.59,39.54,85.33c16.19,20.81,37.46,37.69,63.82,50.64c25.9,15.26,56.88,22.89,92.96,22.89
			c86.02,0,150.3-46.02,192.85-138.05H889.38z"/>
	</g>
	<g>
		<path class="st0" d="M997.6,42.82h645.85v144.99h-492.54v288.59h420.39v135.97h-420.39v296.91h492.54v144.99H997.6V42.82z"/>
	</g>
</g>
</svg>
