<?xml version="1.0" encoding="utf-8"?>
<!-- Generator: Adobe Illustrator 23.0.1, SVG Export Plug-In . SVG Version: 6.00 Build 0)  -->
<svg version="1.1" id="Layer_1" xmlns="http://www.w3.org/2000/svg" xmlns:xlink="http://www.w3.org/1999/xlink" x="0px" y="0px"
	 viewBox="0 0 525 384" style="enable-background:new 0 0 525 384;" xml:space="preserve">
<style type="text/css">
	.st0{fill:#121727;stroke:#121727;stroke-width:3;stroke-miterlimit:10;}
	.st1{fill:none;stroke:#121727;stroke-width:14;stroke-miterlimit:10;}
</style>
<g>
	<path class="st0" d="M135.03,314.98c-1.96,8.27-5.68,14.62-11.18,19.06c-5.66,4.4-12.36,6.6-20.1,6.6
		c-7.01-0.16-12.85-1.87-17.54-5.13c-4.77-3.14-8.23-6.76-10.39-10.88c-0.65-1.34-1.24-2.63-1.77-3.85
		c-0.49-1.26-0.9-2.85-1.22-4.77c-0.61-3.58-0.92-10.47-0.92-20.65c0-10.35,0.31-17.27,0.92-20.78c0.65-3.5,1.65-6.33,2.99-8.49
		c2.16-4.11,5.62-7.78,10.39-11c4.68-3.26,10.53-4.93,17.54-5.01c8.59,0.08,15.6,2.63,21.02,7.64c5.42,5.05,8.84,11.3,10.27,18.76
		h-14.3c-1.1-3.58-3.1-6.64-5.99-9.17c-3.02-2.4-6.68-3.65-11-3.73c-3.18,0.08-5.91,0.71-8.19,1.89c-2.32,1.22-4.2,2.75-5.62,4.58
		c-1.75,1.91-2.91,4.38-3.48,7.39c-0.65,3.18-0.98,9.15-0.98,17.9c0,8.76,0.33,14.69,0.98,17.78c0.57,3.1,1.73,5.6,3.48,7.52
		c1.43,1.83,3.3,3.32,5.62,4.46c2.28,1.34,5.01,2.02,8.19,2.02c7.58,0,13.24-4.05,16.99-12.16H135.03z"/>
	<path class="st0" d="M144.56,250.83h56.89v12.77h-43.38v25.42h37.03v11.98h-37.03v26.15h43.38v12.77h-56.89V250.83z"/>
	<path class="st0" d="M209.87,250.83h14.3l20.23,67.83h0.24l20.29-67.83h14.3l-29.45,89.09h-10.51L209.87,250.83z"/>
	<path class="st0" d="M288.35,250.83h12.71l40.33,63.3h0.24v-63.3h13.5v89.09h-12.77l-40.27-63.3h-0.24v63.3h-13.5V250.83z"/>
	<path class="st0" d="M389.05,262.86h-24.38v-12.04H427v12.04h-24.38v77.05h-13.57V262.86z"/>
</g>
<path class="st1" d="M72,214h173v-41.6h28V214h24l-1-68.4l15.97-51.67c0.23-0.75,1.75-0.74,1.96,0.01L328,144.7l1,69.3h31v-64.17h34
	V214h33"/>
</svg>
