<svg id="Layer_1" data-name="Layer 1" xmlns="http://www.w3.org/2000/svg" viewBox="0 0 358.09 255.77"><defs><style>.cls-1{fill:#121727;stroke-width:3px;}.cls-1,.cls-2{stroke:#121727;stroke-miterlimit:10;}.cls-2{fill:none;stroke-width:14px;}</style></defs><title>ceventLogo</title><path class="cls-1" d="M135,315q-2.94,12.4-11.18,19.07a31.83,31.83,0,0,1-20.11,6.6q-10.5-.24-17.54-5.13a29.94,29.94,0,0,1-10.38-10.88c-.65-1.34-1.25-2.63-1.78-3.85A26,26,0,0,1,72.82,316q-.91-5.37-.91-20.65,0-15.53.91-20.78a24.46,24.46,0,0,1,3-8.49,30.85,30.85,0,0,1,10.38-11q7-4.89,17.54-5,12.9.12,21,7.64A33.61,33.61,0,0,1,135,276.49h-14.3a19.63,19.63,0,0,0-6-9.17,17.65,17.65,0,0,0-11-3.72,18.66,18.66,0,0,0-8.19,1.89,17.1,17.1,0,0,0-5.62,4.58,14.77,14.77,0,0,0-3.48,7.4q-1,4.75-1,17.9t1,17.78a14.87,14.87,0,0,0,3.48,7.52,18.29,18.29,0,0,0,13.81,6.47q11.37,0,17-12.16Z" transform="translate(-70.41 -86.38)"/><path class="cls-1" d="M144.56,250.83h56.89V263.6H158.06V289h37v12h-37v26.15h43.39v12.78H144.56Z" transform="translate(-70.41 -86.38)"/><path class="cls-1" d="M209.87,250.83h14.3l20.22,67.82h.25l20.28-67.82h14.3l-29.45,89.09H239.26Z" transform="translate(-70.41 -86.38)"/><path class="cls-1" d="M288.35,250.83h12.71l40.33,63.3h.25v-63.3h13.5v89.09H342.37L302.1,276.61h-.24v63.31H288.35Z" transform="translate(-70.41 -86.38)"/><path class="cls-1" d="M389.05,262.86H364.67v-12H427v12H402.62v77.06H389.05Z" transform="translate(-70.41 -86.38)"/><path class="cls-2" d="M72,214H245V172.4h28V214h24l-1-68.4,16-51.66c.23-.75,1.75-.74,2,0L328,144.7l1,69.3h31V149.83h34V214h33" transform="translate(-70.41 -86.38)"/></svg>